# xmcd
#
# Track frame offsets:
#	187
#	18067
#	34405
#	52322
#	67187
#	89830
#	110092
#	127965
#	143420
#	162037
#	180715
#	197247
#	211427
#	229430
#
# Disc length: 3363 seconds
#
# Revision: 1
# Processed by: cddbd v1.5.1PL0 Copyright (c) Steve Scherf et al.
# Submitted via: CDex 1.50Beta5
#
DISCID=d40d210e
DTITLE=シグナル - 75〜83 Presents
DYEAR=1994
DGENRE=
TTITLE0=20歳のめぐり逢い
TTITLE1=B.G.Mはため息で
TTITLE2=沈黙時代
TTITLE3=雪のひとひら
TTITLE4=生きがい
TTITLE5=君が夢を見始める頃
TTITLE6=エアポートふたたび…
TTITLE7=Julia
TTITLE8=ときどきどきどき
TTITLE9=ターミナル
TTITLE10=風になれたら
TTITLE11=愛の終りに
TTITLE12=蒼い影
TTITLE13=愛に捧ぐ
EXTD=
EXTT0=
EXTT1=
EXTT2=
EXTT3=
EXTT4=
EXTT5=
EXTT6=
EXTT7=
EXTT8=
EXTT9=
EXTT10=
EXTT11=
EXTT12=
EXTT13=
PLAYORDER=
